<svg xmlns="http://www.w3.org/2000/svg" xmlns:xlink="http://www.w3.org/1999/xlink" width="100" zoomAndPan="magnify" viewBox="0 0 75 37.5" height="50" preserveAspectRatio="xMidYMid meet" version="1.0"><defs><g/><clipPath id="4a58f8542f"><path d="M 0.492188 0 L 74.503906 0 L 74.503906 37.007812 L 0.492188 37.007812 Z M 0.492188 0 " clip-rule="nonzero"/></clipPath><clipPath id="ef4027b99d"><path d="M 22.75 5 L 52.355469 5 L 52.355469 15.355469 L 22.75 15.355469 Z M 22.75 5 " clip-rule="nonzero"/></clipPath></defs><g clip-path="url(#4a58f8542f)"><path fill="#ffffff" d="M 0.492188 0 L 74.507812 0 L 74.507812 44.40625 L 0.492188 44.40625 Z M 0.492188 0 " fill-opacity="1" fill-rule="nonzero"/><path fill="#ffffff" d="M 0.492188 0 L 74.507812 0 L 74.507812 37.007812 L 0.492188 37.007812 Z M 0.492188 0 " fill-opacity="1" fill-rule="nonzero"/><path fill="#ffffff" d="M 0.492188 0 L 74.507812 0 L 74.507812 37.007812 L 0.492188 37.007812 Z M 0.492188 0 " fill-opacity="1" fill-rule="nonzero"/></g><g fill="#000000" fill-opacity="1"><g transform="translate(2.491198, 23.571398)"><g><path d="M 4.125 -3.609375 L 2.75 -2.203125 L 2.75 0 L 1.15625 0 L 1.15625 -8.609375 L 2.75 -8.609375 L 2.75 -4.1875 L 7.015625 -8.609375 L 8.796875 -8.609375 L 5.1875 -4.765625 L 9.03125 0 L 7.15625 0 Z M 4.125 -3.609375 "/></g></g></g><g fill="#000000" fill-opacity="1"><g transform="translate(11.452915, 23.571398)"><g><path d="M 3.953125 0.09375 C 3.296875 0.09375 2.695312 -0.0507812 2.15625 -0.34375 C 1.625 -0.632812 1.207031 -1.035156 0.90625 -1.546875 C 0.613281 -2.054688 0.46875 -2.632812 0.46875 -3.28125 C 0.46875 -3.925781 0.613281 -4.503906 0.90625 -5.015625 C 1.207031 -5.523438 1.625 -5.921875 2.15625 -6.203125 C 2.695312 -6.492188 3.296875 -6.640625 3.953125 -6.640625 C 4.628906 -6.640625 5.234375 -6.492188 5.765625 -6.203125 C 6.296875 -5.921875 6.710938 -5.523438 7.015625 -5.015625 C 7.316406 -4.503906 7.46875 -3.925781 7.46875 -3.28125 C 7.46875 -2.632812 7.316406 -2.054688 7.015625 -1.546875 C 6.710938 -1.035156 6.296875 -0.632812 5.765625 -0.34375 C 5.234375 -0.0507812 4.628906 0.09375 3.953125 0.09375 Z M 3.953125 -1.234375 C 4.523438 -1.234375 4.992188 -1.421875 5.359375 -1.796875 C 5.734375 -2.171875 5.921875 -2.664062 5.921875 -3.28125 C 5.921875 -3.894531 5.734375 -4.390625 5.359375 -4.765625 C 4.992188 -5.148438 4.523438 -5.34375 3.953125 -5.34375 C 3.390625 -5.34375 2.925781 -5.148438 2.5625 -4.765625 C 2.195312 -4.390625 2.015625 -3.894531 2.015625 -3.28125 C 2.015625 -2.664062 2.195312 -2.171875 2.5625 -1.796875 C 2.925781 -1.421875 3.390625 -1.234375 3.953125 -1.234375 Z M 3.953125 -1.234375 "/></g></g></g><g fill="#000000" fill-opacity="1"><g transform="translate(19.38201, 23.571398)"><g><path d="M 4.734375 -6.640625 C 5.554688 -6.640625 6.21875 -6.394531 6.71875 -5.90625 C 7.21875 -5.425781 7.46875 -4.710938 7.46875 -3.765625 L 7.46875 0 L 5.9375 0 L 5.9375 -3.5625 C 5.9375 -4.132812 5.800781 -4.566406 5.53125 -4.859375 C 5.257812 -5.148438 4.875 -5.296875 4.375 -5.296875 C 3.8125 -5.296875 3.363281 -5.125 3.03125 -4.78125 C 2.707031 -4.445312 2.546875 -3.957031 2.546875 -3.3125 L 2.546875 0 L 1.015625 0 L 1.015625 -6.5625 L 2.46875 -6.5625 L 2.46875 -5.71875 C 2.726562 -6.019531 3.050781 -6.25 3.4375 -6.40625 C 3.820312 -6.5625 4.253906 -6.640625 4.734375 -6.640625 Z M 4.734375 -6.640625 "/></g></g></g><g fill="#000000" fill-opacity="1"><g transform="translate(27.802825, 23.571398)"><g><path d="M 3.03125 0.09375 C 2.5 0.09375 1.976562 0.0234375 1.46875 -0.109375 C 0.96875 -0.253906 0.566406 -0.4375 0.265625 -0.65625 L 0.84375 -1.8125 C 1.144531 -1.625 1.5 -1.46875 1.90625 -1.34375 C 2.320312 -1.226562 2.734375 -1.171875 3.140625 -1.171875 C 4.054688 -1.171875 4.515625 -1.410156 4.515625 -1.890625 C 4.515625 -2.117188 4.394531 -2.28125 4.15625 -2.375 C 3.925781 -2.46875 3.550781 -2.550781 3.03125 -2.625 C 2.488281 -2.707031 2.046875 -2.800781 1.703125 -2.90625 C 1.367188 -3.019531 1.078125 -3.207031 0.828125 -3.46875 C 0.578125 -3.738281 0.453125 -4.113281 0.453125 -4.59375 C 0.453125 -5.207031 0.710938 -5.703125 1.234375 -6.078125 C 1.753906 -6.453125 2.457031 -6.640625 3.34375 -6.640625 C 3.789062 -6.640625 4.238281 -6.585938 4.6875 -6.484375 C 5.144531 -6.378906 5.515625 -6.242188 5.796875 -6.078125 L 5.21875 -4.90625 C 4.65625 -5.226562 4.023438 -5.390625 3.328125 -5.390625 C 2.878906 -5.390625 2.535156 -5.320312 2.296875 -5.1875 C 2.066406 -5.0625 1.953125 -4.882812 1.953125 -4.65625 C 1.953125 -4.414062 2.078125 -4.242188 2.328125 -4.140625 C 2.578125 -4.035156 2.96875 -3.9375 3.5 -3.84375 C 4.019531 -3.757812 4.445312 -3.664062 4.78125 -3.5625 C 5.113281 -3.457031 5.398438 -3.273438 5.640625 -3.015625 C 5.890625 -2.765625 6.015625 -2.40625 6.015625 -1.9375 C 6.015625 -1.320312 5.75 -0.828125 5.21875 -0.453125 C 4.6875 -0.0859375 3.957031 0.09375 3.03125 0.09375 Z M 3.03125 0.09375 "/></g></g></g><g fill="#000000" fill-opacity="1"><g transform="translate(34.133809, 23.571398)"><g><path d="M 8.796875 -8.609375 L 8.796875 0 L 7.203125 0 L 7.203125 -3.6875 L 2.75 -3.6875 L 2.75 0 L 1.15625 0 L 1.15625 -8.609375 L 2.75 -8.609375 L 2.75 -5.046875 L 7.203125 -5.046875 L 7.203125 -8.609375 Z M 8.796875 -8.609375 "/></g></g></g><g fill="#000000" fill-opacity="1"><g transform="translate(44.091276, 23.571398)"><g><path d="M 3.953125 0.09375 C 3.296875 0.09375 2.695312 -0.0507812 2.15625 -0.34375 C 1.625 -0.632812 1.207031 -1.035156 0.90625 -1.546875 C 0.613281 -2.054688 0.46875 -2.632812 0.46875 -3.28125 C 0.46875 -3.925781 0.613281 -4.503906 0.90625 -5.015625 C 1.207031 -5.523438 1.625 -5.921875 2.15625 -6.203125 C 2.695312 -6.492188 3.296875 -6.640625 3.953125 -6.640625 C 4.628906 -6.640625 5.234375 -6.492188 5.765625 -6.203125 C 6.296875 -5.921875 6.710938 -5.523438 7.015625 -5.015625 C 7.316406 -4.503906 7.46875 -3.925781 7.46875 -3.28125 C 7.46875 -2.632812 7.316406 -2.054688 7.015625 -1.546875 C 6.710938 -1.035156 6.296875 -0.632812 5.765625 -0.34375 C 5.234375 -0.0507812 4.628906 0.09375 3.953125 0.09375 Z M 3.953125 -1.234375 C 4.523438 -1.234375 4.992188 -1.421875 5.359375 -1.796875 C 5.734375 -2.171875 5.921875 -2.664062 5.921875 -3.28125 C 5.921875 -3.894531 5.734375 -4.390625 5.359375 -4.765625 C 4.992188 -5.148438 4.523438 -5.34375 3.953125 -5.34375 C 3.390625 -5.34375 2.925781 -5.148438 2.5625 -4.765625 C 2.195312 -4.390625 2.015625 -3.894531 2.015625 -3.28125 C 2.015625 -2.664062 2.195312 -2.171875 2.5625 -1.796875 C 2.925781 -1.421875 3.390625 -1.234375 3.953125 -1.234375 Z M 3.953125 -1.234375 "/></g></g></g><g fill="#000000" fill-opacity="1"><g transform="translate(52.020371, 23.571398)"><g><path d="M 9.296875 -6.640625 C 10.117188 -6.640625 10.769531 -6.398438 11.25 -5.921875 C 11.738281 -5.441406 11.984375 -4.722656 11.984375 -3.765625 L 11.984375 0 L 10.453125 0 L 10.453125 -3.5625 C 10.453125 -4.132812 10.320312 -4.566406 10.0625 -4.859375 C 9.8125 -5.148438 9.453125 -5.296875 8.984375 -5.296875 C 8.460938 -5.296875 8.046875 -5.125 7.734375 -4.78125 C 7.421875 -4.445312 7.265625 -3.960938 7.265625 -3.328125 L 7.265625 0 L 5.734375 0 L 5.734375 -3.5625 C 5.734375 -4.132812 5.601562 -4.566406 5.34375 -4.859375 C 5.09375 -5.148438 4.726562 -5.296875 4.25 -5.296875 C 3.726562 -5.296875 3.3125 -5.128906 3 -4.796875 C 2.695312 -4.460938 2.546875 -3.972656 2.546875 -3.328125 L 2.546875 0 L 1.015625 0 L 1.015625 -6.5625 L 2.46875 -6.5625 L 2.46875 -5.734375 C 2.71875 -6.023438 3.023438 -6.25 3.390625 -6.40625 C 3.765625 -6.5625 4.175781 -6.640625 4.625 -6.640625 C 5.113281 -6.640625 5.546875 -6.546875 5.921875 -6.359375 C 6.304688 -6.179688 6.613281 -5.910156 6.84375 -5.546875 C 7.113281 -5.890625 7.457031 -6.15625 7.875 -6.34375 C 8.300781 -6.539062 8.773438 -6.640625 9.296875 -6.640625 Z M 9.296875 -6.640625 "/></g></g></g><g fill="#000000" fill-opacity="1"><g transform="translate(64.965072, 23.571398)"><g><path d="M 7.1875 -3.25 C 7.1875 -3.144531 7.175781 -2.992188 7.15625 -2.796875 L 2 -2.796875 C 2.09375 -2.304688 2.328125 -1.921875 2.703125 -1.640625 C 3.085938 -1.359375 3.5625 -1.21875 4.125 -1.21875 C 4.851562 -1.21875 5.453125 -1.457031 5.921875 -1.9375 L 6.734375 -0.984375 C 6.441406 -0.628906 6.066406 -0.359375 5.609375 -0.171875 C 5.160156 0.00390625 4.65625 0.09375 4.09375 0.09375 C 3.375 0.09375 2.738281 -0.0507812 2.1875 -0.34375 C 1.632812 -0.632812 1.207031 -1.035156 0.90625 -1.546875 C 0.613281 -2.054688 0.46875 -2.632812 0.46875 -3.28125 C 0.46875 -3.925781 0.613281 -4.503906 0.90625 -5.015625 C 1.195312 -5.523438 1.597656 -5.921875 2.109375 -6.203125 C 2.628906 -6.492188 3.210938 -6.640625 3.859375 -6.640625 C 4.503906 -6.640625 5.078125 -6.5 5.578125 -6.21875 C 6.078125 -5.9375 6.46875 -5.535156 6.75 -5.015625 C 7.039062 -4.503906 7.1875 -3.914062 7.1875 -3.25 Z M 3.859375 -5.40625 C 3.367188 -5.40625 2.953125 -5.257812 2.609375 -4.96875 C 2.273438 -4.675781 2.066406 -4.289062 1.984375 -3.8125 L 5.71875 -3.8125 C 5.65625 -4.289062 5.453125 -4.675781 5.109375 -4.96875 C 4.773438 -5.257812 4.359375 -5.40625 3.859375 -5.40625 Z M 3.859375 -5.40625 "/></g></g></g><g clip-path="url(#ef4027b99d)"><path fill="#ff66c4" d="M 28.640625 14.699219 L 24.175781 14.699219 C 24.175781 14.699219 37.550781 5.738281 37.550781 5.738281 C 37.550781 5.738281 50.925781 14.699219 50.925781 14.699219 C 50.925781 14.699219 47.199219 14.699219 47.199219 14.699219 C 47.023438 14.699219 46.882812 14.847656 46.882812 15.03125 C 46.882812 15.214844 47.023438 15.363281 47.199219 15.363281 L 52.007812 15.363281 C 52.148438 15.363281 52.273438 15.265625 52.3125 15.125 C 52.351562 14.984375 52.300781 14.832031 52.179688 14.753906 C 52.179688 14.753906 37.726562 5.066406 37.726562 5.066406 C 37.621094 4.996094 37.484375 4.996094 37.378906 5.066406 C 37.378906 5.066406 22.921875 14.753906 22.921875 14.753906 C 22.804688 14.832031 22.75 14.984375 22.789062 15.125 C 22.832031 15.265625 22.957031 15.363281 23.097656 15.363281 L 28.640625 15.363281 C 28.816406 15.363281 28.960938 15.214844 28.960938 15.03125 C 28.960938 14.847656 28.816406 14.699219 28.640625 14.699219 Z M 28.640625 14.699219 " fill-opacity="1" fill-rule="evenodd"/></g><path fill="#ff66c4" d="M 44.234375 9.660156 L 44.234375 6.667969 C 44.234375 6.667969 45.324219 6.667969 45.324219 6.667969 C 45.324219 6.667969 45.324219 10.609375 45.324219 10.609375 C 45.324219 10.792969 45.46875 10.941406 45.644531 10.941406 C 45.820312 10.941406 45.960938 10.792969 45.960938 10.609375 L 45.960938 6.335938 C 45.960938 6.152344 45.820312 6.003906 45.644531 6.003906 L 43.917969 6.003906 C 43.742188 6.003906 43.597656 6.152344 43.597656 6.335938 L 43.597656 9.660156 C 43.597656 9.839844 43.742188 9.988281 43.917969 9.988281 C 44.09375 9.988281 44.234375 9.839844 44.234375 9.660156 Z M 44.234375 9.660156 " fill-opacity="1" fill-rule="evenodd"/></svg>