<svg xmlns="http://www.w3.org/2000/svg" xmlns:xlink="http://www.w3.org/1999/xlink" width="200" zoomAndPan="magnify" viewBox="0 0 150 74.999997" height="100" preserveAspectRatio="xMidYMid meet" version="1.0"><defs><g/><clipPath id="5ec71eca81"><path d="M 45.105469 14.621094 L 105.105469 14.621094 L 105.105469 34.871094 L 45.105469 34.871094 Z M 45.105469 14.621094 " clip-rule="nonzero"/></clipPath></defs><rect x="-15" width="180" fill="#ffffff" y="-7.5" height="89.999996" fill-opacity="1"/><rect x="-15" width="180" fill="#ffffff" y="-7.5" height="89.999996" fill-opacity="1"/><rect x="-15" width="180" fill="#f8f9fa" y="-7.5" height="89.999996" fill-opacity="1"/><g fill="#000000" fill-opacity="1"><g transform="translate(4.048831, 47.771362)"><g><path d="M 8.359375 -7.3125 L 5.59375 -4.46875 L 5.59375 0 L 2.34375 0 L 2.34375 -17.453125 L 5.59375 -17.453125 L 5.59375 -8.5 L 14.21875 -17.453125 L 17.859375 -17.453125 L 10.53125 -9.65625 L 18.296875 0 L 14.515625 0 Z M 8.359375 -7.3125 "/></g></g></g><g fill="#000000" fill-opacity="1"><g transform="translate(22.211244, 47.771362)"><g><path d="M 8.03125 0.171875 C 6.6875 0.171875 5.472656 -0.117188 4.390625 -0.703125 C 3.304688 -1.285156 2.460938 -2.09375 1.859375 -3.125 C 1.253906 -4.164062 0.953125 -5.34375 0.953125 -6.65625 C 0.953125 -7.96875 1.253906 -9.140625 1.859375 -10.171875 C 2.460938 -11.203125 3.304688 -12.007812 4.390625 -12.59375 C 5.472656 -13.175781 6.6875 -13.46875 8.03125 -13.46875 C 9.394531 -13.46875 10.613281 -13.175781 11.6875 -12.59375 C 12.769531 -12.007812 13.613281 -11.203125 14.21875 -10.171875 C 14.832031 -9.140625 15.140625 -7.96875 15.140625 -6.65625 C 15.140625 -5.34375 14.832031 -4.164062 14.21875 -3.125 C 13.613281 -2.09375 12.769531 -1.285156 11.6875 -0.703125 C 10.613281 -0.117188 9.394531 0.171875 8.03125 0.171875 Z M 8.03125 -2.5 C 9.175781 -2.5 10.125 -2.878906 10.875 -3.640625 C 11.625 -4.398438 12 -5.40625 12 -6.65625 C 12 -7.90625 11.625 -8.910156 10.875 -9.671875 C 10.125 -10.441406 9.175781 -10.828125 8.03125 -10.828125 C 6.882812 -10.828125 5.941406 -10.441406 5.203125 -9.671875 C 4.460938 -8.910156 4.09375 -7.90625 4.09375 -6.65625 C 4.09375 -5.40625 4.460938 -4.398438 5.203125 -3.640625 C 5.941406 -2.878906 6.882812 -2.5 8.03125 -2.5 Z M 8.03125 -2.5 "/></g></g></g><g fill="#000000" fill-opacity="1"><g transform="translate(38.280876, 47.771362)"><g><path d="M 9.59375 -13.46875 C 11.28125 -13.46875 12.628906 -12.976562 13.640625 -12 C 14.648438 -11.019531 15.15625 -9.5625 15.15625 -7.625 L 15.15625 0 L 12.046875 0 L 12.046875 -7.234375 C 12.046875 -8.398438 11.769531 -9.273438 11.21875 -9.859375 C 10.675781 -10.453125 9.894531 -10.75 8.875 -10.75 C 7.726562 -10.75 6.820312 -10.398438 6.15625 -9.703125 C 5.488281 -9.015625 5.15625 -8.023438 5.15625 -6.734375 L 5.15625 0 L 2.046875 0 L 2.046875 -13.3125 L 5.015625 -13.3125 L 5.015625 -11.59375 C 5.523438 -12.207031 6.171875 -12.671875 6.953125 -12.984375 C 7.734375 -13.304688 8.613281 -13.46875 9.59375 -13.46875 Z M 9.59375 -13.46875 "/></g></g></g><g fill="#000000" fill-opacity="1"><g transform="translate(55.34706, 47.771362)"><g><path d="M 6.15625 0.171875 C 5.070312 0.171875 4.015625 0.03125 2.984375 -0.25 C 1.960938 -0.53125 1.144531 -0.890625 0.53125 -1.328125 L 1.71875 -3.6875 C 2.320312 -3.289062 3.039062 -2.972656 3.875 -2.734375 C 4.71875 -2.492188 5.546875 -2.375 6.359375 -2.375 C 8.222656 -2.375 9.15625 -2.863281 9.15625 -3.84375 C 9.15625 -4.300781 8.914062 -4.625 8.4375 -4.8125 C 7.96875 -5 7.207031 -5.175781 6.15625 -5.34375 C 5.0625 -5.507812 4.164062 -5.695312 3.46875 -5.90625 C 2.78125 -6.125 2.179688 -6.503906 1.671875 -7.046875 C 1.171875 -7.585938 0.921875 -8.335938 0.921875 -9.296875 C 0.921875 -10.566406 1.445312 -11.578125 2.5 -12.328125 C 3.5625 -13.085938 4.988281 -13.46875 6.78125 -13.46875 C 7.695312 -13.46875 8.609375 -13.363281 9.515625 -13.15625 C 10.429688 -12.945312 11.179688 -12.664062 11.765625 -12.3125 L 10.578125 -9.953125 C 9.441406 -10.617188 8.171875 -10.953125 6.765625 -10.953125 C 5.847656 -10.953125 5.148438 -10.8125 4.671875 -10.53125 C 4.203125 -10.257812 3.96875 -9.898438 3.96875 -9.453125 C 3.96875 -8.953125 4.21875 -8.597656 4.71875 -8.390625 C 5.226562 -8.179688 6.015625 -7.988281 7.078125 -7.8125 C 8.140625 -7.644531 9.007812 -7.453125 9.6875 -7.234375 C 10.375 -7.015625 10.960938 -6.644531 11.453125 -6.125 C 11.941406 -5.613281 12.1875 -4.882812 12.1875 -3.9375 C 12.1875 -2.6875 11.644531 -1.6875 10.5625 -0.9375 C 9.488281 -0.195312 8.019531 0.171875 6.15625 0.171875 Z M 6.15625 0.171875 "/></g></g></g><g fill="#000000" fill-opacity="1"><g transform="translate(68.177854, 47.771362)"><g><path d="M 17.859375 -17.453125 L 17.859375 0 L 14.609375 0 L 14.609375 -7.484375 L 5.59375 -7.484375 L 5.59375 0 L 2.34375 0 L 2.34375 -17.453125 L 5.59375 -17.453125 L 5.59375 -10.25 L 14.609375 -10.25 L 14.609375 -17.453125 Z M 17.859375 -17.453125 "/></g></g></g><g fill="#000000" fill-opacity="1"><g transform="translate(88.358318, 47.771362)"><g><path d="M 8.03125 0.171875 C 6.6875 0.171875 5.472656 -0.117188 4.390625 -0.703125 C 3.304688 -1.285156 2.460938 -2.09375 1.859375 -3.125 C 1.253906 -4.164062 0.953125 -5.34375 0.953125 -6.65625 C 0.953125 -7.96875 1.253906 -9.140625 1.859375 -10.171875 C 2.460938 -11.203125 3.304688 -12.007812 4.390625 -12.59375 C 5.472656 -13.175781 6.6875 -13.46875 8.03125 -13.46875 C 9.394531 -13.46875 10.613281 -13.175781 11.6875 -12.59375 C 12.769531 -12.007812 13.613281 -11.203125 14.21875 -10.171875 C 14.832031 -9.140625 15.140625 -7.96875 15.140625 -6.65625 C 15.140625 -5.34375 14.832031 -4.164062 14.21875 -3.125 C 13.613281 -2.09375 12.769531 -1.285156 11.6875 -0.703125 C 10.613281 -0.117188 9.394531 0.171875 8.03125 0.171875 Z M 8.03125 -2.5 C 9.175781 -2.5 10.125 -2.878906 10.875 -3.640625 C 11.625 -4.398438 12 -5.40625 12 -6.65625 C 12 -7.90625 11.625 -8.910156 10.875 -9.671875 C 10.125 -10.441406 9.175781 -10.828125 8.03125 -10.828125 C 6.882812 -10.828125 5.941406 -10.441406 5.203125 -9.671875 C 4.460938 -8.910156 4.09375 -7.90625 4.09375 -6.65625 C 4.09375 -5.40625 4.460938 -4.398438 5.203125 -3.640625 C 5.941406 -2.878906 6.882812 -2.5 8.03125 -2.5 Z M 8.03125 -2.5 "/></g></g></g><g fill="#000000" fill-opacity="1"><g transform="translate(104.42795, 47.771362)"><g><path d="M 18.859375 -13.46875 C 20.535156 -13.46875 21.863281 -12.976562 22.84375 -12 C 23.820312 -11.03125 24.3125 -9.570312 24.3125 -7.625 L 24.3125 0 L 21.203125 0 L 21.203125 -7.234375 C 21.203125 -8.398438 20.941406 -9.273438 20.421875 -9.859375 C 19.910156 -10.453125 19.171875 -10.75 18.203125 -10.75 C 17.160156 -10.75 16.320312 -10.398438 15.6875 -9.703125 C 15.050781 -9.015625 14.734375 -8.035156 14.734375 -6.765625 L 14.734375 0 L 11.625 0 L 11.625 -7.234375 C 11.625 -8.398438 11.363281 -9.273438 10.84375 -9.859375 C 10.332031 -10.453125 9.59375 -10.75 8.625 -10.75 C 7.5625 -10.75 6.71875 -10.40625 6.09375 -9.71875 C 5.46875 -9.039062 5.15625 -8.054688 5.15625 -6.765625 L 5.15625 0 L 2.046875 0 L 2.046875 -13.3125 L 5.015625 -13.3125 L 5.015625 -11.625 C 5.515625 -12.21875 6.132812 -12.671875 6.875 -12.984375 C 7.625 -13.304688 8.457031 -13.46875 9.375 -13.46875 C 10.375 -13.46875 11.257812 -13.28125 12.03125 -12.90625 C 12.800781 -12.53125 13.410156 -11.976562 13.859375 -11.25 C 14.410156 -11.945312 15.117188 -12.488281 15.984375 -12.875 C 16.847656 -13.269531 17.804688 -13.46875 18.859375 -13.46875 Z M 18.859375 -13.46875 "/></g></g></g><g fill="#000000" fill-opacity="1"><g transform="translate(130.662545, 47.771362)"><g><path d="M 14.5625 -6.578125 C 14.5625 -6.367188 14.546875 -6.0625 14.515625 -5.65625 L 4.0625 -5.65625 C 4.25 -4.675781 4.726562 -3.898438 5.5 -3.328125 C 6.269531 -2.753906 7.226562 -2.46875 8.375 -2.46875 C 9.84375 -2.46875 11.050781 -2.953125 12 -3.921875 L 13.671875 -2 C 13.066406 -1.28125 12.304688 -0.738281 11.390625 -0.375 C 10.484375 -0.0078125 9.453125 0.171875 8.296875 0.171875 C 6.835938 0.171875 5.550781 -0.117188 4.4375 -0.703125 C 3.320312 -1.285156 2.460938 -2.09375 1.859375 -3.125 C 1.253906 -4.164062 0.953125 -5.34375 0.953125 -6.65625 C 0.953125 -7.957031 1.242188 -9.125 1.828125 -10.15625 C 2.421875 -11.195312 3.238281 -12.007812 4.28125 -12.59375 C 5.332031 -13.175781 6.515625 -13.46875 7.828125 -13.46875 C 9.128906 -13.46875 10.289062 -13.179688 11.3125 -12.609375 C 12.332031 -12.035156 13.128906 -11.226562 13.703125 -10.1875 C 14.273438 -9.144531 14.5625 -7.941406 14.5625 -6.578125 Z M 7.828125 -10.96875 C 6.828125 -10.96875 5.984375 -10.671875 5.296875 -10.078125 C 4.609375 -9.492188 4.191406 -8.710938 4.046875 -7.734375 L 11.59375 -7.734375 C 11.457031 -8.691406 11.046875 -9.46875 10.359375 -10.0625 C 9.679688 -10.664062 8.835938 -10.96875 7.828125 -10.96875 Z M 7.828125 -10.96875 "/></g></g></g><g clip-path="url(#5ec71eca81)"><path fill="#ff66c4" d="M 57.042969 33.589844 L 47.992188 33.589844 C 47.992188 33.589844 75.105469 16.078125 75.105469 16.078125 C 75.105469 16.078125 102.21875 33.589844 102.21875 33.589844 C 102.21875 33.589844 94.664062 33.589844 94.664062 33.589844 C 94.304688 33.589844 94.015625 33.878906 94.015625 34.234375 C 94.015625 34.589844 94.304688 34.878906 94.664062 34.878906 L 104.40625 34.878906 C 104.695312 34.878906 104.945312 34.691406 105.027344 34.417969 C 105.109375 34.140625 105 33.847656 104.757812 33.691406 C 104.757812 33.691406 75.457031 14.769531 75.457031 14.769531 C 75.242188 14.628906 74.96875 14.628906 74.753906 14.769531 C 74.753906 14.769531 45.453125 33.691406 45.453125 33.691406 C 45.210938 33.847656 45.101562 34.140625 45.183594 34.417969 C 45.265625 34.691406 45.515625 34.878906 45.804688 34.878906 L 57.042969 34.878906 C 57.402344 34.878906 57.691406 34.589844 57.691406 34.234375 C 57.691406 33.878906 57.402344 33.589844 57.042969 33.589844 Z M 57.042969 33.589844 " fill-opacity="1" fill-rule="evenodd"/></g><path fill="#ff66c4" d="M 88.65625 23.738281 L 88.65625 17.890625 C 88.65625 17.890625 90.859375 17.890625 90.859375 17.890625 C 90.859375 17.890625 90.859375 25.597656 90.859375 25.597656 C 90.859375 25.953125 91.148438 26.242188 91.507812 26.242188 C 91.863281 26.242188 92.152344 25.953125 92.152344 25.597656 L 92.152344 17.246094 C 92.152344 16.890625 91.863281 16.601562 91.507812 16.601562 L 88.007812 16.601562 C 87.652344 16.601562 87.359375 16.890625 87.359375 17.246094 L 87.359375 23.738281 C 87.359375 24.09375 87.652344 24.382812 88.007812 24.382812 C 88.363281 24.382812 88.65625 24.09375 88.65625 23.738281 Z M 88.65625 23.738281 " fill-opacity="1" fill-rule="evenodd"/></svg>